# File created by Blade
# Date/Time:  Wed Apr 08 17:17:01 2015
# Frame Rate: 120.000 fps
#------------------------------------------------------
:FULLY-SPECIFIED
:DEGREES
1675
root 5.176717 35.931219 -0.893285 249.375620 -86.359571 -257.556307
Spine 10.918741 1.696170 -3.658893
Head 4.888331 8.689142 3.108903
LeftShoulder -6.393899 8.182396 28.566756
LeftArm 14.498416 -36.800762 -34.620615
LeftForeArm 27.861542 0.000000 4.199225
LeftHand -11.432098 -0.000000 -16.239040
LeftHandThumb1 -26.253704 0.000000 33.147579
RightShoulder -23.239617 -38.142253 -13.027257
RightArm 52.127275 49.999265 51.462165
RightForeArm 1.917074 -0.000000 -1.070342
RightHand -3.158042 -0.000000 9.219478
RightHandThumb1 -24.326973 -0.000000 -32.862282
LeftUpLeg 14.603692 11.676344 4.012689
LeftLeg 5.186931 -0.000000 -0.000000
LeftFoot -12.110019 8.707824 -17.192839
LeftToeBase 7.052269 -0.000000 -0.000000
RightUpLeg 15.703958 -11.121567 -14.615649
RightLeg 3.312745 -0.000000 -0.000000
RightFoot -11.791556 0.927980 19.623626
RightToeBase 10.999032 -0.000000 -0.000000
1676
root 5.182414 35.931776 -0.889536 248.907193 -86.347465 -257.076643
Spine 10.929421 1.689201 -3.688692
Head 4.830364 8.609220 3.124486
LeftShoulder -6.404783 8.183200 28.576868
LeftArm 14.526649 -36.772103 -34.638802
LeftForeArm 27.881550 -0.000000 4.175387
LeftHand -11.408053 0.000000 -16.287748
LeftHandThumb1 -26.253704 0.000000 33.147579
RightShoulder -23.239696 -38.159984 -12.992591
RightArm 52.140936 50.008764 51.458866
RightForeArm 1.969698 0.000000 -1.073976
RightHand -3.151580 -0.000000 9.075594
RightHandThumb1 -24.326973 -0.000000 -32.862282
LeftUpLeg 14.587634 11.663992 3.988370
LeftLeg 5.182398 -0.000000 -0.000000
LeftFoot -12.120173 8.754597 -17.202220
LeftToeBase 7.079138 -0.000000 -0.000000
RightUpLeg 15.664078 -11.101537 -14.619367
RightLeg 3.327767 -0.000000 -0.000000
RightFoot -11.789358 0.939030 19.623049
RightToeBase 10.989050 -0.000000 -0.000000
1677
root 5.188545 35.932614 -0.887439 248.276375 -86.341380 -256.429070
Spine 10.930568 1.697488 -3.709382
Head 4.789446 8.529976 3.148977
LeftShoulder -6.405759 8.200379 28.588123
LeftArm 14.567984 -36.785710 -34.680398
LeftForeArm 27.887673 -0.000000 4.175802
LeftHand -11.461484 0.000000 -16.256494
LeftHandThumb1 -26.253704 0.000000 33.147579
RightShoulder -23.241797 -38.145626 -12.971898
RightArm 52.134345 50.004798 51.457192
RightForeArm 1.990226 -0.000000 -1.067432
RightHand -3.127826 -0.000000 9.067931
RightHandThumb1 -24.326973 -0.000000 -32.862282
LeftUpLeg 14.568465 11.696051 3.985546
LeftLeg 5.180613 -0.000000 -0.000000
LeftFoot -12.111998 8.778475 -17.187373
LeftToeBase 7.054115 -0.000000 -0.000000
RightUpLeg 15.611994 -11.083664 -14.610004
RightLeg 3.348849 -0.000000 -0.000000
RightFoot -11.778832 0.947350 19.622872
RightToeBase 10.970748 -0.000000 -0.000000
1678
root 5.194397 35.933015 -0.886067 247.683800 -86.335417 -255.819909
Spine 10.932687 1.696450 -3.732736
Head 4.749272 8.448966 3.172630
LeftShoulder -6.398596 8.192629 28.604253
LeftArm 14.546283 -36.778454 -34.684878
LeftForeArm 27.878940 0.000000 4.186429
LeftHand -11.418378 0.000000 -16.149176
LeftHandThumb1 -26.253704 0.000000 33.147579
RightShoulder -23.236504 -38.155255 -12.952860
RightArm 52.146889 49.998905 51.469237
RightForeArm 2.078278 -0.000000 -1.061953
RightHand -3.115631 0.000000 9.033002
RightHandThumb1 -24.326973 -0.000000 -32.862282
LeftUpLeg 14.553978 11.731241 3.986546
LeftLeg 5.172733 -0.000000 -0.000000
LeftFoot -12.118315 8.786914 -17.189219
LeftToeBase 7.084491 -0.000000 -0.000000
RightUpLeg 15.561719 -11.050927 -14.594795
RightLeg 3.368003 -0.000000 -0.000000
RightFoot -11.769756 0.950275 19.618819
RightToeBase 10.962451 -0.000000 -0.000000
